<?xml version="1.0" encoding="iso-8859-1"?>
<!-- Generator: Adobe Illustrator 17.1.0, SVG Export Plug-In . SVG Version: 6.00 Build 0)  -->
<!DOCTYPE svg PUBLIC "-//W3C//DTD SVG 1.1//EN" "http://www.w3.org/Graphics/SVG/1.1/DTD/svg11.dtd">
<svg version="1.1" id="Capa_1" xmlns="http://www.w3.org/2000/svg" xmlns:xlink="http://www.w3.org/1999/xlink" x="0px" y="0px"
	 viewBox="0 0 417.73 417.73" style="enable-background:new 0 0 417.73 417.73;" xml:space="preserve">
<path id="XMLID_975_" d="M203.671,171.058c0,4.418-3.582,8-8,8c-54.371,0-98.605,44.233-98.605,98.604c0,4.418-3.582,8-8,8
	s-8-3.582-8-8c0-63.193,51.412-114.604,114.605-114.604C200.09,163.058,203.671,166.639,203.671,171.058z M416.893,160.405
	c-23.444-47.181-63.301-83.857-112.225-103.274c-4.105-1.63-8.757,0.377-10.387,4.484s0.378,8.757,4.484,10.387
	c45.25,17.958,82.113,51.882,103.799,95.522c1.397,2.813,4.229,4.442,7.17,4.442c1.196,0,2.411-0.27,3.554-0.838
	C417.246,169.164,418.859,164.362,416.893,160.405z M358.749,168.646c1.534,2.351,4.095,3.628,6.707,3.628
	c1.499,0,3.016-0.421,4.365-1.302c3.7-2.416,4.741-7.373,2.326-11.072c-16.665-25.529-39.789-46.317-66.872-60.118
	c-3.936-2.006-8.754-0.44-10.76,3.496c-2.006,3.937-0.44,8.754,3.496,10.76C322.607,126.572,343.61,145.455,358.749,168.646z
	 M404.833,379.226c0,15.808-12.86,28.668-28.667,28.668h-347.5C12.859,407.894,0,395.034,0,379.227
	c0-15.808,12.859-28.668,28.666-28.668h87.961v-17.124H37.073c-4.418,0-8-3.582-8-8v-41.336c0-46.119,18.081-89.599,50.913-122.43
	c30.926-30.926,71.302-48.764,114.43-50.73V67.171h-2.333c-15.807,0-28.667-12.86-28.667-28.667
	c0-15.808,12.86-28.668,28.667-28.668h20.668c15.807,0,28.667,12.86,28.667,28.667c0,15.808-12.86,28.668-28.667,28.668h-2.335
	v43.767c43.127,1.966,83.504,19.805,114.43,50.73c32.832,32.832,50.913,76.312,50.913,122.43v41.336c0,4.418-3.582,8-8,8h-79.554
	v17.124h87.961C391.972,350.559,404.833,363.419,404.833,379.226z M202.415,51.171h10.335c6.984,0,12.667-5.682,12.667-12.667
	c0-6.985-5.683-12.668-12.667-12.668h-20.668c-6.984,0-12.667,5.683-12.667,12.667c0,6.985,5.683,12.668,12.667,12.668H202.415z
	 M280.205,317.435h79.554v-33.336c0-86.759-70.584-157.343-157.343-157.343c-86.759,0-157.342,70.584-157.342,157.343v33.336
	H280.205z M132.627,333.435v17.124h139.577v-17.124H132.627z M388.833,379.227c0-6.985-5.683-12.668-12.667-12.668h-347.5
	c-6.984,0-12.666,5.683-12.666,12.667c0,6.985,5.682,12.668,12.666,12.668h347.5C383.15,391.894,388.833,386.211,388.833,379.227z"
	/>
<g>
</g>
<g>
</g>
<g>
</g>
<g>
</g>
<g>
</g>
<g>
</g>
<g>
</g>
<g>
</g>
<g>
</g>
<g>
</g>
<g>
</g>
<g>
</g>
<g>
</g>
<g>
</g>
<g>
</g>
</svg>
